<svg id="Layer_1"
  xmlns="http://www.w3.org/2000/svg" viewBox="0 0 1366 372.7">
  <style>
    .st1{fill:#ffffff}.st2{fill:#ff2c3c}
  </style>
  <path id="Artboard1" fill="none" d="M0 0h1365.5v372.7H0z"/>
  <path class="st1" d="M8.8 161V6.6h28.1l47.3 89.6v39.9L29 31.8v129H8.8v.2zm96.4 0V6.6h20.2v154.2h-20.2v.2zM244.4 6.6v17.6H168v45.7h76.4v17.9l-76.4-.3v34.9h-20.8V6.8h97.2v-.2zm-52.3 136.8h52.3V161h-97.2v-17.6h44.9zM331.4 26.3c-12.6 2.4-22.3 7.4-29.4 15.2-9.5 10.8-14.2 25-14.2 42.6 0 17.1 4.7 31 14.2 42 7.1 7.9 16.8 13.1 29.4 15.2v18.9c-17.9-1.8-32.6-8.7-44.1-20.2-13.9-13.9-20.8-32.6-20.8-56s6.8-42 20.8-56c11.6-11.6 26.3-18.4 44.1-20.5v18.8zm67 1.8c13.9 13.9 20.8 32.6 20.8 56s-6.8 42-20.8 56c-11.8 11.8-27.1 18.7-46 20.5v-18.9c13.7-2.1 24.2-7.4 31.5-15.5 9.5-10.8 14.2-24.7 14.2-42 0-17.6-4.7-31.8-14.2-42.6-7.4-8.4-17.9-13.4-31.5-15.5V7.6c18.6 1.6 34.1 8.7 46 20.5z"/>
  <g>
    <path class="st2" d="M29.8 209.7v62h-21v-62h21zm0 83v70.9h-21v-70.9h21zM51.6 363.6V209.1h28.1l47.3 89.6v39.9L71.8 234.4v129H51.6v.2zm96.4 0V209.1h20.2v154.2H148v.3zM320.3 209.4V227h-54.6v.3h-21v-.3H190v-17.6h130.3zm-54.6 38.9v115.1h-21V248.3h21zM439.6 209.1v17.6h-76.4v45.7h76.4v17.9l-76.4-.3v35h-20.8V209.4h97.2v-.3zM387.3 346h52.3v17.6h-97.5V346h45.2zM508.7 209.1c17.3 0 30.2 3.9 39.1 11.8 8.9 7.9 13.4 19.2 13.4 34.2 0 15.2-4.5 26.8-13.4 34.4-4.7 4.2-10.5 7.1-17.9 9.2l29.9 64.4h-23.4l-28.6-62h-46.5v-91.9l47.4-.1zm-26.3 113.3v41h-20.8v-41h20.8zm0-39.4h26.3c9.7 0 17.1-2.6 22.3-7.6 5.3-5 7.9-11.8 7.9-20 0-8.1-2.6-15-7.9-20-5.3-5-12.6-7.6-22.3-7.6h-26.3V283zM702.5 306.3l21.8 56.7h-21.8l-13.9-39.4H619L605.1 363H583l21.8-56.7h97.7zm-37-97.2l30.2 79.3h-20.5l-21.8-59.1-21.8 59.1h-20.5l30.2-79.3h24.2zM776.4 293.2c1.1 13.1 6.3 25 15.8 35.2 4.7 5.3 10 8.9 16 11.3 6 2.4 13.7 3.4 22.6 3.4l47.8-.3.3 20.2-49.6.3c-23.4 0-41.5-6.8-55.2-20.5-12.1-12.6-18.9-29.2-20-49.9h22.3v.3zm102.4-83.8l-.3 20.5-47.3-.5c-8.1 0-15.2 1.3-20.8 3.7-5.8 2.4-11.3 6-16.5 10.5-8.7 9.7-14.4 19.7-16.5 30.2h-22.6c2.1-17.9 8.7-32.3 19.4-43.3 13.7-13.9 32-21 55.2-21l49.4-.1zM1030.9 209.4V227h-54.6v.3h-21v-.3h-54.6v-17.6h130.2zm-54.6 38.9v115.1h-21V248.3h21zM1074 209.7v62h-21v-62h21zm0 83v70.9h-21v-70.9h21zM1117.3 209.1c30.5 80.9 49.9 132.4 58.3 154.2h-21.3l-58.8-154.2h21.8zm119.6 0L1188.3 337l-10.8-28.1 37.8-99.8h21.6zM1356.1 209.1v17.6h-76.4v45.7h76.4v17.9l-76.4-.3v35h-20.8V209.4h97.2v-.3zM1303.6 346h52.3v17.6h-97.5V346h45.2z"/>
  </g>
</svg>
