<?xml version="1.0" encoding="utf-8"?>
<!-- Generator: Adobe Illustrator 22.1.0, SVG Export Plug-In . SVG Version: 6.00 Build 0)  -->
<svg version="1.1" id="Layer_1" xmlns="http://www.w3.org/2000/svg" xmlns:xlink="http://www.w3.org/1999/xlink" x="0px" y="0px"
	 viewBox="0 0 754 89.1" style="enable-background:new 0 0 754 89.1;" xml:space="preserve">
<style type="text/css">
	.st0{enable-background:new    ;}
	.st1{fill:#E8E8E8;}
	.st2{fill:#FF2C3C;}
</style>
<g class="st0">
	<path class="st1" d="M12.2,72.2V13.4h10.7l18,34.1v15.2l-21-39.7v49.1H12.2z M48.9,72.2c0-6.8,0-16.8,0-29.9c0-13.1,0-22.7,0-28.9
		h7.7v58.7H48.9z"/>
	<path class="st1" d="M101.9,13.4v6.7H72.8v17.4h29.1v6.8l-29.1-0.1v13.3h-7.9v-44H101.9z M82,65.5c8.7,0,15.3,0,19.9,0v6.7H64.9
		v-6.7C67.6,65.5,73.4,65.5,82,65.5z"/>
	<path class="st1" d="M135,20.9c-4.8,0.9-8.5,2.8-11.2,5.8c-3.6,4.1-5.4,9.5-5.4,16.2c0,6.5,1.8,11.8,5.4,16c2.7,3,6.4,5,11.2,5.8
		v7.2c-6.8-0.7-12.4-3.3-16.8-7.7c-5.3-5.3-7.9-12.4-7.9-21.3c0-8.9,2.6-16,7.9-21.3c4.4-4.4,10-7,16.8-7.8V20.9z M160.5,21.6
		c5.3,5.3,7.9,12.4,7.9,21.3c0,8.9-2.6,16-7.9,21.3c-4.5,4.5-10.3,7.1-17.5,7.8v-7.2c5.2-0.8,9.2-2.8,12-5.9c3.6-4.1,5.4-9.4,5.4-16
		c0-6.7-1.8-12.1-5.4-16.2c-2.8-3.2-6.8-5.1-12-5.9v-7C150.1,14.4,156,17.1,160.5,21.6z"/>
</g>
<g class="st0">
	<path class="st2" d="M221.1,80.4h-44.7v-4.9h44.7V80.4z"/>
	<path class="st2" d="M237.4,13.6v23.6h-8V13.6H237.4z M237.4,45.2v27h-8v-27H237.4z"/>
	<path class="st2" d="M245.7,72.2V13.4h10.7l18,34.1v15.2l-21-39.7v49.1H245.7z M282.4,72.2c0-6.8,0-16.8,0-29.9
		c0-13.1,0-22.7,0-28.9h7.7v58.7H282.4z"/>
	<path class="st2" d="M348,13.5v6.7h-20.8v0.1h-8v-0.1h-20.8v-6.7H348z M327.2,28.3v43.8h-8V28.3H327.2z"/>
	<path class="st2" d="M393.4,13.4v6.7h-29.1v17.4h29.1v6.8l-29.1-0.1v13.3h-7.9v-44H393.4z M373.5,65.5c8.7,0,15.3,0,19.9,0v6.7
		h-37.1v-6.7C359.1,65.5,364.8,65.5,373.5,65.5z"/>
	<path class="st2" d="M419.7,13.4c6.6,0,11.5,1.5,14.9,4.5c3.4,3,5.1,7.3,5.1,13c0,5.8-1.7,10.2-5.1,13.1c-1.8,1.6-4,2.7-6.8,3.5
		l11.4,24.5h-8.9l-10.9-23.6h-9.8h-7.9V13.4H419.7z M409.7,56.5v15.6h-7.9V56.5H409.7z M409.7,41.5h10c3.7,0,6.5-1,8.5-2.9
		c2-1.9,3-4.5,3-7.6s-1-5.7-3-7.6c-2-1.9-4.8-2.9-8.5-2.9h-10V41.5z"/>
	<path class="st2" d="M493.5,50.4l8.3,21.6h-8.3l-5.3-15h-26.5l-5.3,15H448l8.3-21.6H493.5z M479.4,13.4l11.5,30.2h-7.8l-8.3-22.5
		l-8.3,22.5h-7.8l11.5-30.2H479.4z"/>
	<path class="st2" d="M521.6,45.4c0.4,5,2.4,9.5,6,13.4c1.8,2,3.8,3.4,6.1,4.3c2.3,0.9,5.2,1.3,8.6,1.3l18.2-0.1l0.1,7.7l-18.9,0.1
		c-8.9,0-15.8-2.6-21-7.8c-4.6-4.8-7.2-11.1-7.6-19H521.6z M560.6,13.5l-0.1,7.8l-18-0.2c-3.1,0-5.8,0.5-7.9,1.4
		c-2.2,0.9-4.3,2.3-6.3,4c-3.3,3.7-5.5,7.5-6.3,11.5h-8.6c0.8-6.8,3.3-12.3,7.4-16.5c5.2-5.3,12.2-8,21-8H560.6z"/>
	<path class="st2" d="M618.5,13.5v6.7h-20.8v0.1h-8v-0.1h-20.8v-6.7H618.5z M597.7,28.3v43.8h-8V28.3H597.7z"/>
	<path class="st2" d="M634.9,13.6v23.6h-8V13.6H634.9z M634.9,45.2v27h-8v-27H634.9z"/>
	<path class="st2" d="M651.4,13.4c11.6,30.8,19,50.4,22.2,58.7h-8.1l-22.4-58.7H651.4z M696.9,13.4l-18.5,48.7l-4.1-10.7l14.4-38
		H696.9z"/>
	<path class="st2" d="M742.3,13.4v6.7h-29.1v17.4h29.1v6.8l-29.1-0.1v13.3h-7.9v-44H742.3z M722.3,65.5c8.7,0,15.3,0,19.9,0v6.7
		h-37.1v-6.7C708,65.5,713.7,65.5,722.3,65.5z"/>
</g>
</svg>
